#!OML:ASF I:\Actors\actors\Patient Classification 2\Patient 1\Session 1\actor1.ASF
:FULLY-SPECIFIED
:DEGREES

223
root -0.47772 18.0819 5.74983 1.70065 -22.1509 -3.20728
lowerback -0.184591 -4.93694 -2.23644
upperback -1.78841 -6.58962 1.49299
thorax -1.30688 -3.25926 2.81442
lowerneck -10.4574 5.27907 15.4585
upperneck 27.511 2.90757 3.00413
head 11.0187 3.15611 -1.12952
rclavicle 7.12146e-014 6.55989e-015
rhumerus 24.1863 43.7668 -29.2104
rradius 127.511
rwrist -84.5107
rhand -3.04082 -57.6536
rfingers 7.12502
rthumb 22.6748 -86.3415
lclavicle 7.12146e-014 6.55989e-015
lhumerus 42.6777 13.9969 75.2308
lradius 65.1952
lwrist 80.4052
lhand -33.473 -3.26718
lfingers 7.12502
lthumb -6.67083 26.6077
rfemur 10.478 12.9016 15.891
rtibia -15.6722
rfoot -1.43041 -8.72875
rtoes -1.40049
lfemur 16.9514 8.20271 -11.6952
ltibia -6.60713
lfoot -15.266 18.5422
ltoes 1.4717
224
root -0.469718 18.0771 5.75891 1.57707 -22.6417 -3.175
lowerback -0.126382 -5.17463 -2.25761
upperback -1.93124 -6.90787 1.61996
thorax -1.44821 -3.41399 2.96823
lowerneck -9.7526 5.40266 15.4731
upperneck 27.5464 3.21436 2.96306
head 10.9155 3.28409 -1.12239
rclavicle 4.60435e-014 1.10325e-014
rhumerus 25.439 44.0336 -27.4828
rradius 127.587
rwrist -85.3986
rhand -3.2493 -57.6678
rfingers 7.12502
rthumb 22.4747 -86.38
lclavicle 4.60435e-014 1.10325e-014
lhumerus 41.8162 14.6898 75.7028
lradius 64.1687
lwrist 79.9323
lhand -33.2677 -2.67737
lfingers 7.12502
lthumb -6.47267 27.2037
rfemur 10.6403 13.1931 15.8299
rtibia -15.8822
rfoot -1.17654 -8.65011
rtoes -1.73353
lfemur 17.1224 8.68085 -11.6995
ltibia -6.36211
lfoot -15.5718 18.3543
ltoes 2.34578
225
root -0.460901 18.071 5.76932 1.42978 -23.1958 -3.13236
lowerback 0.100743 -5.87469 -2.58823
upperback -2.29109 -7.84496 2.44209
thorax -1.72677 -3.8662 4.02829
lowerneck -8.44864 5.81263 13.9383
upperneck 27.5986 4.34589 2.95891
head 10.6731 3.63497 -0.773567
rclavicle -4.13721e-015 -8.94531e-015
rhumerus 29.1038 45.0593 -23.6421
rradius 127.749
rwrist -86.4939
rhand -3.49713 -57.7454
rfingers 7.12502
rthumb 22.2368 -86.4862
lclavicle -4.13721e-015 -8.94531e-015
lhumerus 40.0559 17.1816 76.451
lradius 63.4321
lwrist 79.3383
lhand -33.1396 -2.16485
lfingers 7.12502
lthumb -6.34898 27.72
rfemur 10.8072 13.4266 15.7521
rtibia -16.0881
rfoot -0.895723 -8.49172
rtoes -1.67021
lfemur 17.3387 9.22082 -11.715
ltibia -6.12153
lfoot -15.8886 18.1297
ltoes 3.28731
226
root -0.450214 18.0661 5.77933 1.32075 -23.7387 -3.08838
lowerback 0.162033 -5.97482 -2.51649
upperback -2.21478 -7.97882 2.4291
thorax -1.68208 -3.93631 3.97695
lowerneck -8.66062 5.86026 14.3204
upperneck 27.7572 4.33307 2.7646
head 10.7962 3.65189 -0.896596
rclavicle 1.95803e-014 -9.14409e-015
rhumerus 30.1203 44.8223 -22.0595
rradius 127.9
rwrist -87.2562
rhand -3.16392 -58.0352
rfingers 7.12502
rthumb 22.5566 -86.7374
lclavicle 1.95803e-014 -9.14409e-015
lhumerus 39.7405 17.6842 77.0984
lradius 62.4324
lwrist 78.8965
lhand -33.0449 -1.76453
lfingers 7.12502
lthumb -6.25754 28.1231
rfemur 10.9052 13.6408 15.6573
rtibia -16.2622
rfoot -0.632609 -8.3339
rtoes -1.48047
lfemur 17.5162 9.76241 -11.7586
ltibia -5.93931
lfoot -16.0673 17.9853
ltoes 3.63987
227
root -0.440401 18.0639 5.7845 1.3009 -24.2057 -3.1032
lowerback 0.180982 -6.15915 -2.49534
upperback -2.15344 -8.2245 2.5109
thorax -1.59958 -4.06216 4.04454
lowerneck -8.65827 5.96296 14.5362
upperneck 27.797 4.45908 2.63506
head 10.832 3.71576 -0.960333
rclavicle 7.99363e-014 2.46493e-014
rhumerus 30.9228 44.6934 -20.5978
rradius 128.112
rwrist -87.7277
rhand -1.86716 -58.5956
rfingers 7.12502
rthumb 23.8008 -87.1414
lclavicle 7.99363e-014 2.46493e-014
lhumerus 39.3536 18.4468 77.7393
lradius 61.4986
lwrist 78.3998
lhand -33.1435 -1.40219
lfingers 7.12502
lthumb -6.3527 28.4825
rfemur 10.9014 13.8424 15.6199
rtibia -16.3869
rfoot -0.396477 -8.20763
rtoes -1.46042
lfemur 17.6118 10.2394 -11.7566
ltibia -5.84365
lfoot -16.0985 17.9569
ltoes 3.43597
228
root -0.431954 18.064 5.78595 1.3308 -24.6007 -3.09518
lowerback 0.242595 -6.31223 -2.43843
upperback -2.15313 -8.42911 2.52748
thorax -1.62163 -4.16501 4.03683
lowerneck -8.6872 6.00433 14.6786
upperneck 27.8352 4.45984 2.67188
head 10.8604 3.73332 -0.967671
rclavicle -5.5933e-014 -1.19271e-015
rhumerus 30.4702 44.6864 -19.9819
rradius 128.363
rwrist -87.6204
rhand -0.354101 -59.1577
rfingers 7.12502
rthumb 25.2512 -87.5067
lclavicle -5.5933e-014 -1.19271e-015
lhumerus 38.9415 19.0602 78.3652
lradius 60.6565
lwrist 77.8349
lhand -33.4829 -0.892081
lfingers 7.12502
lthumb -6.68036 28.9825
rfemur 10.8114 13.9889 15.5558
rtibia -16.4699
rfoot -0.183441 -8.07662
rtoes -1.53689
lfemur 17.6504 10.6511 -11.7788
ltibia -5.81516
lfoot -16.0989 17.9407
ltoes 3.19793
229
root -0.423567 18.0638 5.78858 1.35278 -24.9761 -3.09934
lowerback 0.376978 -6.43164 -2.28494
upperback -2.19971 -8.58864 2.47555
thorax -1.76103 -4.24372 3.92172
lowerneck -8.82094 5.94775 14.7295
upperneck 27.9592 4.26668 2.87146
head 10.924 3.67516 -0.922923
rclavicle -1.39696e-013 -7.95139e-015
rhumerus 31.9899 44.5028 -17.8056
rradius 128.524
rwrist -88.1739
rhand -0.247569 -58.8865
rfingers 7.12502
rthumb 25.3532 -87.2211
lclavicle -1.39696e-013 -7.95139e-015
lhumerus 38.5021 19.5594 78.9373
lradius 59.7778
lwrist 77.2943
lhand -33.6621 -0.450051
lfingers 7.12502
lthumb -6.85338 29.419
rfemur 10.7482 14.1759 15.5127
rtibia -16.5453
rfoot -0.0307712 -8.00135
rtoes -1.38546
lfemur 17.7008 11.0387 -11.7774
ltibia -5.76197
lfoot -16.1552 17.86
ltoes 3.2924
230
root -0.414457 18.0622 5.79312 1.32677 -25.4006 -3.09386
lowerback 0.510413 -6.58561 -2.21799
upperback -2.22772 -8.79486 2.49973
thorax -1.8536 -4.34565 3.92935
lowerneck -8.96519 5.8088 14.5965
upperneck 28.1525 3.98325 3.07425
head 11.0014 3.5602 -0.859636
rclavicle 7.2954e-014 9.74045e-015
rhumerus 32.4533 44.4516 -16.2425
rradius 128.756
rwrist -88.352
rhand -0.393977 -58.4138
rfingers 7.12502
rthumb 25.213 -86.7683
lclavicle 7.2954e-014 9.74045e-015
lhumerus 37.9753 20.2605 79.4665
lradius 58.9289
lwrist 76.7849
lhand -33.4708 -0.176277
lfingers 7.12502
lthumb -6.6687 29.6987
rfemur 10.7351 14.3634 15.4665
rtibia -16.6238
rfoot 0.159726 -7.89069
rtoes -1.2987
lfemur 17.7964 11.4672 -11.7713
ltibia -5.66752
lfoot -16.2144 17.7494
ltoes 3.48965
231
root -0.404906 18.0611 5.79695 1.31631 -25.8186 -3.04347
lowerback 0.631132 -6.76611 -2.21651
upperback -2.27271 -9.03716 2.55382
thorax -1.93933 -4.46449 4.00275
lowerneck -8.76425 5.80025 14.7543
upperneck 28.1873 3.9909 2.96306
head 10.9849 3.5633 -0.929486
rclavicle 1.25632e-013 -5.56597e-015
rhumerus 32.9937 44.4464 -14.8112
rradius 129.056
rwrist -88.5984
rhand -1.51391 -57.6158
rfingers 7.12502
rthumb 24.1395 -86.117
lclavicle 1.25632e-013 -5.56597e-015
lhumerus 37.4101 21.0912 80.0099
lradius 58.1758
lwrist 76.2582
lhand -33.3074 -0.105266
lfingers 7.12502
lthumb -6.51103 29.7746
rfemur 10.678 14.4759 15.3613
rtibia -16.7065
rfoot 0.416937 -7.71519
rtoes -1.59864
lfemur 17.8439 11.8947 -11.8165
ltibia -5.5725
lfoot -16.2485 17.6436
ltoes 3.565
232
root -0.396054 18.06 5.79966 1.34113 -26.2047 -3.07318
lowerback 0.800878 -6.8962 -2.09789
upperback -2.31992 -9.21079 2.54143
thorax -2.0888 -4.54957 3.95451
lowerneck -8.56639 5.73925 14.9738
upperneck 28.1865 3.87777 2.97246
head 10.9506 3.52896 -0.98096
rclavicle 7.51903e-014 0
rhumerus 33.6128 44.4624 -13.5687
rradius 129.387
rwrist -88.8751
rhand -2.36912 -57.2244
rfingers 7.12502
rthumb 23.3193 -85.8321
lclavicle 7.51903e-014 0
lhumerus 36.9853 21.7768 80.5685
lradius 57.3143
lwrist 75.8124
lhand -33.333 -0.412299
lfingers 7.12502
lthumb -6.53566 29.4669
rfemur 10.6382 14.6595 15.3406
rtibia -16.8212
rfoot 0.629876 -7.62397
rtoes -1.73241
lfemur 17.8414 12.2924 -11.7895
ltibia -5.40061
lfoot -16.3389 17.5263
ltoes 3.77929
233
root -0.388408 18.0573 5.80307 1.30624 -26.6438 -3.0938
lowerback 1.08061 -7.21773 -2.17335
upperback -2.20452 -9.6421 2.91329
thorax -2.01513 -4.76659 4.40011
lowerneck -9.03089 5.94487 14.1327
upperneck 28.3418 4.1795 3.20542
head 11.0749 3.61582 -0.710467
rclavicle -6.06542e-014 1.55052e-014
rhumerus 35.7054 44.086 -11.1127
rradius 129.735
rwrist -89.2645
rhand -0.363663 -58.3439
rfingers 7.12502
rthumb 25.242 -86.6942
lclavicle -6.06542e-014 1.55052e-014
lhumerus 36.9745 23.5153 81.6532
lradius 56.3947
lwrist 75.2247
lhand -33.1786 -0.312261
lfingers 7.12502
lthumb -6.38664 29.5715
rfemur 10.6733 14.9346 15.3243
rtibia -16.9666
rfoot 0.808757 -7.56283
rtoes -1.6244
lfemur 17.8689 12.7377 -11.7688
ltibia -5.1277
lfoot -16.4813 17.3921
ltoes 4.0328
234
root -0.38154 18.0545 5.80711 1.22881 -27.119 -3.00573
lowerback 1.17297 -7.38896 -2.21983
upperback -2.22864 -9.87308 2.92881
thorax -2.06077 -4.8801 4.45629
lowerneck -8.62951 5.90004 14.0865
upperneck 28.2492 4.17178 3.26117
head 10.957 3.60143 -0.698071
rclavicle -4.33102e-014 -7.15625e-015
rhumerus 36.7102 44.1258 -9.68886
rradius 130.114
rwrist -89.4838
rhand -2.8887 -57.3236
rfingers 7.12502
rthumb 22.8208 -85.9936
lclavicle -4.33102e-014 -7.15625e-015
lhumerus 36.573 24.594 82.3336
lradius 55.5829
lwrist 74.7006
lhand -32.8714 0.333749
lfingers 7.12502
lthumb -6.09004 30.2262
rfemur 10.7016 15.1759 15.1951
rtibia -17.1203
rfoot 1.02031 -7.45427
rtoes -1.47319
lfemur 17.8921 13.2211 -11.8575
ltibia -4.82999
lfoot -16.633 17.2303
ltoes 4.25271
235
root -0.374438 18.0533 5.81044 1.20272 -27.521 -2.90516
lowerback 1.15161 -7.49683 -2.20347
upperback -2.3335 -10.0178 2.78644
thorax -2.17253 -4.9491 4.31097
lowerneck -7.95633 5.73505 14.3954
upperneck 28.1389 3.9854 3.24952
head 10.7887 3.52907 -0.796336
rclavicle -9.24349e-015 3.57812e-015
rhumerus 37.1323 44.4238 -8.78828
rradius 130.488
rwrist -89.6297
rhand -2.20355 -57.5037
rfingers 7.12502
rthumb 23.4782 -86.0911
lclavicle -9.24349e-015 3.57812e-015
lhumerus 35.9506 25.2859 82.7685
lradius 54.962
lwrist 74.2774
lhand -32.7327 0.671214
lfingers 7.12502
lthumb -5.95612 30.5675
rfemur 10.6785 15.3493 15.0419
rtibia -17.2866
rfoot 1.25102 -7.37896
rtoes -1.53579
lfemur 17.8002 13.6451 -11.9859
ltibia -4.48598
lfoot -16.7718 17.0619
ltoes 4.38718
